<?xml version="1.0" standalone="no"?>
<!DOCTYPE svg PUBLIC "-//W3C//DTD SVG 20010904//EN"
 "http://www.w3.org/TR/2001/REC-SVG-20010904/DTD/svg10.dtd">
<svg version="1.0" xmlns="http://www.w3.org/2000/svg"
 width="63.000000pt" height="63.000000pt" viewBox="0 0 63.000000 63.000000"
 preserveAspectRatio="xMidYMid meet">

<g transform="translate(0.000000,63.000000) scale(0.100000,-0.100000)"
fill="#000000" stroke="none">
<path d="M284 606 c-12 -31 0 -51 31 -51 27 0 30 3 30 30 0 25 -4 30 -28 33
-17 2 -29 -2 -33 -12z"/>
<path d="M226 572 c-4 -7 64 -116 87 -139 6 -5 97 124 97 137 0 18 -20 10 -42
-15 -26 -31 -80 -34 -100 -7 -17 24 -35 34 -42 24z"/>
<path d="M180 521 c0 -50 -21 -71 -71 -71 -28 0 -39 -4 -39 -15 0 -8 6 -15 13
-15 6 0 44 -6 83 -14 l71 -13 -13 71 c-8 39 -14 77 -14 84 0 6 -7 12 -15 12
-11 0 -15 -11 -15 -39z"/>
<path d="M427 553 c-7 -11 -30 -154 -26 -157 9 -6 160 30 162 39 1 6 -16 11
-38 13 -53 5 -75 26 -75 74 0 34 -12 50 -23 31z"/>
<path d="M91 522 c-14 -27 8 -55 40 -50 19 2 24 9 24 33 0 25 -4 31 -27 33
-18 2 -30 -3 -37 -16z"/>
<path d="M473 524 c-14 -38 41 -71 66 -40 7 8 10 24 6 36 -8 25 -62 28 -72 4z"/>
<path d="M50 397 c0 -7 11 -23 25 -35 16 -14 25 -32 25 -50 0 -18 -9 -37 -25
-50 -25 -22 -33 -42 -15 -42 13 0 142 91 137 97 -14 14 -132 93 -139 93 -4 0
-8 -6 -8 -13z"/>
<path d="M504 367 c-33 -23 -61 -46 -61 -52 -2 -10 114 -95 129 -95 17 0 7 27
-17 48 -14 12 -25 32 -25 45 0 13 11 34 25 47 24 22 34 50 18 50 -5 0 -35 -19
-69 -43z"/>
<path d="M14 336 c-12 -31 0 -51 31 -51 27 0 30 3 30 30 0 25 -4 30 -28 33
-17 2 -29 -2 -33 -12z"/>
<path d="M554 336 c-12 -31 0 -51 30 -51 36 0 56 26 37 49 -17 20 -60 21 -67
2z"/>
<path d="M132 216 c-70 -12 -82 -29 -25 -34 51 -5 73 -26 73 -74 0 -25 5 -38
14 -38 9 0 17 23 25 69 6 39 11 75 11 80 0 13 -13 12 -98 -3z"/>
<path d="M401 213 c1 -44 26 -148 35 -146 5 2 10 20 12 40 5 51 26 73 74 73
66 0 46 25 -32 38 -90 15 -90 15 -89 -5z"/>
<path d="M266 130 c-25 -38 -46 -72 -46 -75 0 -14 29 -2 50 20 14 14 35 25 50
25 16 0 35 -10 48 -25 23 -26 42 -33 42 -14 0 9 -88 139 -94 139 -2 0 -24 -31
-50 -70z"/>
<path d="M90 141 c-13 -25 -4 -48 21 -56 38 -12 65 35 37 63 -18 18 -46 14
-58 -7z"/>
<path d="M482 148 c-18 -18 -14 -46 7 -58 25 -13 48 -4 56 21 12 38 -35 65
-63 37z"/>
<path d="M287 74 c-14 -14 -7 -53 12 -63 26 -14 54 8 49 40 -2 17 -10 25 -28
27 -14 2 -29 0 -33 -4z"/>
</g>
</svg>
